<?xml version="1.0" encoding="utf-8"?>
<!-- Generator: Adobe Illustrator 19.2.1, SVG Export Plug-In . SVG Version: 6.00 Build 0)  -->
<svg version="1.1" id="Logo" xmlns="http://www.w3.org/2000/svg" xmlns:xlink="http://www.w3.org/1999/xlink" x="0px"
	 y="0px" viewBox="0 0 20 20" enable-background="new 0 0 20 20" xml:space="preserve">
<path d="M17.6,9.3h2c-0.1-1-0.4-2.1-0.8-3l-1.6,1C17.4,8,17.5,8.6,17.6,9.3z M14.1,1.4c-1-0.5-2-0.8-3.1-0.9v2
	c0.7,0.1,1.4,0.3,2.1,0.6L14.1,1.4z M10,17.6c-4.2,0-7.6-3.4-7.6-7.6c0-3.9,2.9-7,6.6-7.5v-2C4.2,0.9,0.4,5,0.4,10
	c0,5.3,4.3,9.6,9.6,9.6c4.8,0,8.8-3.6,9.5-8.2h-2C16.8,14.9,13.7,17.6,10,17.6z M19.6,9.3c-0.2-2.7-1.6-5.3-3.8-7l-1,1.8
	c1.6,1.3,2.6,3.1,2.8,5.1C17.7,9.3,19.6,9.3,19.6,9.3z"/>
</svg>
